<?xml version="1.0" encoding="utf-8"?>
<!-- Generator: Adobe Illustrator 19.2.1, SVG Export Plug-In . SVG Version: 6.00 Build 0)  -->
<svg version="1.1" id="Layer_1" xmlns="http://www.w3.org/2000/svg" xmlns:xlink="http://www.w3.org/1999/xlink" x="0px" y="0px"
	 viewBox="0 0 345.827 345.827" style="enable-background:new 0 0 345.827 345.827;" xml:space="preserve">
<g>
	<path style="fill:#FFFFFF;" d="M18.742,30.756c-0.526,0.093-1.051,0.186-1.577,0.279c-0.242,2.19-0.716,4.382-0.689,6.568
		c0.155,12.941,2.816,25.409,7.447,37.464c3.365,8.758,8.513,16.067,16.675,21.141c6.641,4.128,12.956,8.776,19.544,12.992
		c24.072,15.407,46.63,32.449,65.341,54.455c14.849,17.464,32.561,31.905,52.599,43.289c32.959,18.725,67.232,31.522,106.16,23.939
		c4.741-0.923,9.36-0.572,13.574,2.968c3.671,3.085,8.018,2.524,12.026-0.296c1.434-1.009,3.46-2.52,4.754-2.156
		c6.742,1.894,10.219-2.447,13.862-6.597c2.339-2.665,3.07-5.402,0.202-8.348c-2.214-2.274-2.581-4.623-0.535-7.582
		c0.823-1.19,0.585-4.529-0.414-5.321c-4.527-3.588-9.266-7.062-14.375-9.718c-5.144-2.675-10.291-1.873-14.569,2.604
		c-3.151,3.297-6.816,4.171-11.359,2.571c-4.412-1.554-6.444-4.504-6.811-8.838c-0.571-6.74-4.115-11.449-9.779-14.743
		c-2.585-1.503-5.131-3.269-7.934-4.174c-19.12-6.171-38.212-12.467-57.513-18.027c-7.935-2.286-15.477-0.63-20.777,6.954
		c-2.72,3.892-6.97,5.2-11.541,3.81c-3.776-1.148-7.619-2.476-10.994-4.466c-12.041-7.101-23.914-14.486-35.813-21.824
		c-11.551-7.124-22.536-14.773-29.004-27.406c-2.827-5.521-8.46-7.634-14.087-9.567c-6.415-2.204-13.204-3.955-18.938-7.392
		c-20.588-12.338-35.31-29.583-41.872-53.149C21.445,36.958,19.957,33.895,18.742,30.756z M159.19,146.469
		c0.542-5.87,1.1-10.785,1.43-15.715c0.895-13.348,2.176-26.566,10.194-38.005c3.616-5.159,3.371-7.344-1.357-11.435
		c-2.007-1.736-4.371-3.067-6.335-4.845c-6.759-6.115-14.487-11.533-19.904-18.687c-15.971-21.095-36.903-35.204-60.533-45.952
		c-2.105-0.958-4.456-1.375-6.693-2.043c-0.226,0.369-0.453,0.738-0.679,1.108c1.348,1.801,2.444,3.881,4.083,5.359
		c11.101,10.015,22.167,20.078,33.534,29.785c12.511,10.684,23.417,22.643,31.567,37.002c4.966,8.749,6.804,18.084,4.342,27.885
		c-2.121,8.442-4.841,16.732-7.355,25.289C146.911,139.358,152.632,142.671,159.19,146.469z M149.317,198.015
		c-0.227,0.185-0.454,0.37-0.681,0.555c2.675,5.675,5.021,11.536,8.093,16.988c6.851,12.16,13.537,24.466,21.232,36.089
		c21.57,32.582,47.975,60.815,78.627,85.058c4.332,3.427,8.33,3.414,10.982,0.136c2.529-3.124,1.731-7.416-2.043-10.41
		c-38.98-30.914-70.452-68.127-94.04-111.97c-0.608-1.13-1.368-2.354-2.387-3.06C162.557,206.864,155.922,202.461,149.317,198.015z
		 M291.019,239.899c-0.278-0.46-0.556-0.92-0.833-1.381c-5.725,0.749-11.46,1.438-17.165,2.322
		c-0.741,0.115-1.585,1.116-1.947,1.906c-8.437,18.396-16.814,36.819-25.318,55.491c2.073,1.801,3.99,3.467,6.122,5.32
		C265.158,281.958,278.089,260.929,291.019,239.899z M87.106,35.481C74.382,47.534,61.991,59.27,49.313,71.278
		c3.931,3.45,7.519,6.598,11.427,10.028c10.964-13.748,21.583-27.063,32.405-40.633C91.019,38.845,89.281,37.351,87.106,35.481z
		 M118.205,62.057C105.795,71.915,93.81,81.435,81.543,91.18c5.681,2.276,10.569,4.234,15.661,6.273
		c8.762-9.61,17.608-19.313,26.512-29.078C121.907,66.302,120.284,64.44,118.205,62.057z M225.008,275.859
		c8.565-11.57,16.907-22.837,25.648-34.643c-4.295-0.578-7.803-0.655-11.065-1.591c-3.947-1.133-5.587,0.551-7.158,3.8
		c-3.318,6.861-7.006,13.544-10.511,20.316C218.542,270.27,218.56,270.279,225.008,275.859z M140.515,95.268
		c-10.25,6.764-20.019,13.211-30.432,20.082c3.989,3.302,7.506,6.214,11.297,9.353c5.36-4.867,10.115-9.743,15.45-13.87
		C142.084,106.771,142.464,101.991,140.515,95.268z M213.603,232.813c-4.48-1.755-7.968-3.121-11.388-4.461
		c-8.309,11.987-7.65,9.303-0.547,17.952C205.492,241.98,209.277,237.703,213.603,232.813z"/>
	<path d="M18.742,30.756c1.215,3.139,2.704,6.202,3.602,9.43c6.562,23.566,21.284,40.811,41.872,53.149
		c5.734,3.437,12.523,5.187,18.938,7.392c5.627,1.934,11.261,4.047,14.087,9.567c6.468,12.633,17.453,20.282,29.004,27.406
		c11.899,7.339,23.773,14.724,35.813,21.824c3.375,1.991,7.219,3.318,10.994,4.466c4.571,1.39,8.821,0.081,11.541-3.81
		c5.3-7.584,12.842-9.24,20.777-6.954c19.301,5.56,38.392,11.856,57.513,18.027c2.803,0.905,5.348,2.671,7.934,4.174
		c5.664,3.294,9.208,8.002,9.779,14.743c0.367,4.334,2.399,7.284,6.811,8.838c4.542,1.6,8.208,0.726,11.359-2.571
		c4.278-4.477,9.426-5.279,14.569-2.604c5.109,2.657,9.848,6.131,14.375,9.718c0.999,0.791,1.237,4.13,0.414,5.321
		c-2.046,2.959-1.679,5.308,0.535,7.582c2.868,2.946,2.137,5.683-0.202,8.348c-3.643,4.15-7.12,8.491-13.862,6.597
		c-1.294-0.363-3.321,1.148-4.754,2.156c-4.008,2.82-8.355,3.381-12.026,0.296c-4.214-3.541-8.833-3.892-13.574-2.968
		c-38.928,7.583-73.201-5.214-106.16-23.939c-20.038-11.384-37.75-25.825-52.599-43.289c-18.711-22.006-41.269-39.049-65.341-54.455
		c-6.588-4.216-12.903-8.864-19.544-12.992c-8.163-5.074-13.311-12.383-16.675-21.141c-4.631-12.055-7.292-24.523-7.447-37.464
		c-0.026-2.186,0.447-4.379,0.689-6.568C17.69,30.942,18.216,30.849,18.742,30.756z"/>
	<path d="M159.19,146.469c-6.558-3.798-12.279-7.111-17.706-10.254c2.514-8.557,5.235-16.847,7.355-25.289
		c2.462-9.8,0.625-19.135-4.342-27.885c-8.15-14.359-19.056-26.318-31.567-37.002c-11.367-9.708-22.434-19.77-33.534-29.785
		c-1.639-1.479-2.736-3.558-4.083-5.359c0.226-0.369,0.453-0.738,0.679-1.108c2.237,0.668,4.588,1.086,6.693,2.043
		c23.63,10.749,44.561,24.857,60.533,45.952c5.416,7.154,13.145,12.571,19.904,18.687c1.964,1.777,4.328,3.108,6.335,4.845
		c4.728,4.091,4.973,6.276,1.357,11.435c-8.018,11.439-9.299,24.657-10.194,38.005C160.29,135.684,159.732,140.599,159.19,146.469z"
		/>
	<path d="M149.317,198.015c6.605,4.446,13.24,8.849,19.783,13.385c1.018,0.706,1.778,1.93,2.387,3.06
		c23.588,43.843,55.059,81.056,94.04,111.97c3.774,2.993,4.572,7.285,2.043,10.41c-2.653,3.278-6.65,3.291-10.982-0.136
		c-30.652-24.243-57.057-52.475-78.627-85.058c-7.695-11.623-14.38-23.929-21.232-36.089c-3.072-5.452-5.417-11.313-8.093-16.988
		C148.863,198.384,149.09,198.2,149.317,198.015z"/>
	<path d="M291.019,239.899c-12.93,21.03-25.861,42.059-39.142,63.659c-2.132-1.853-4.049-3.519-6.122-5.32
		c8.504-18.672,16.881-37.095,25.318-55.491c0.362-0.79,1.206-1.791,1.947-1.906c5.705-0.884,11.439-1.573,17.165-2.322
		C290.464,238.979,290.741,239.439,291.019,239.899z"/>
	<path d="M87.106,35.481c2.175,1.869,3.913,3.364,6.04,5.192c-10.822,13.57-21.441,26.885-32.405,40.633
		c-3.909-3.43-7.496-6.578-11.427-10.028C61.991,59.27,74.382,47.534,87.106,35.481z"/>
	<path d="M118.205,62.057c2.079,2.384,3.702,4.245,5.51,6.318c-8.904,9.766-17.75,19.468-26.512,29.078
		c-5.092-2.04-9.98-3.998-15.661-6.273C93.81,81.435,105.795,71.915,118.205,62.057z"/>
	<path d="M225.008,275.859c-6.449-5.58-6.466-5.589-3.086-12.118c3.505-6.772,7.193-13.454,10.511-20.316
		c1.571-3.249,3.211-4.933,7.158-3.8c3.262,0.936,6.77,1.013,11.065,1.591C241.916,253.022,233.574,264.29,225.008,275.859z"/>
	<path d="M140.515,95.268c1.949,6.723,1.569,11.503-3.685,15.566c-5.335,4.126-10.09,9.003-15.45,13.87
		c-3.791-3.139-7.309-6.051-11.297-9.353C120.496,108.479,130.265,102.032,140.515,95.268z"/>
	<path d="M213.603,232.813c-4.326,4.89-8.111,9.167-11.936,13.491c-7.102-8.649-7.762-5.965,0.547-17.952
		C205.635,229.692,209.123,231.058,213.603,232.813z"/>
</g>
</svg>
