<svg xmlns="http://www.w3.org/2000/svg" viewBox="0 0 1681.818 166.424"><path fill="#71bf44" stroke="#000" stroke-miterlimit="10" d="M0 0h168.182v79.449H0z"/><path fill="#72bf44" stroke="#000" stroke-miterlimit="10" d="M168.182 0h168.182v79.449H168.182z"/><path fill="#78c36a" stroke="#000" stroke-miterlimit="10" d="M336.364 0h168.182v79.449H336.364z"/><path fill="#93cc94" stroke="#000" stroke-miterlimit="10" d="M504.545 0h168.182v79.449H504.545z"/><path fill="#bebebe" stroke="#000" stroke-miterlimit="10" d="M672.727 0h168.182v79.449H672.727zM840.909 0h168.182v79.449H840.909z"/><path fill="#cc9091" stroke="#000" stroke-miterlimit="10" d="M1009.091 0h168.182v79.449h-168.182z"/><path fill="#dc6163" stroke="#000" stroke-miterlimit="10" d="M1177.273 0h168.182v79.449h-168.182z"/><path fill="#ea373d" stroke="#000" stroke-miterlimit="10" d="M1345.455 0h168.182v79.449h-168.182z"/><path fill="#ee342e" stroke="#000" stroke-miterlimit="10" d="M1513.636 0h168.182v79.449h-168.182z"/><path d="M1083.476 108.001v39.091h-5.046v-39.091h5.046zM1092.698 126.618c0-2.899-.059-5.277-.232-7.598h4.523l.29 4.64h.116c1.393-2.668 4.64-5.277 9.28-5.277 3.886 0 9.917 2.32 9.917 11.947v16.762h-5.104V130.91c0-4.523-1.682-8.294-6.496-8.294-3.363 0-5.974 2.378-6.844 5.221-.231.638-.348 1.508-.348 2.378v16.877h-5.104v-20.474zM1144.896 146.048c-1.334.696-4.292 1.624-8.062 1.624-8.468 0-13.978-5.742-13.978-14.325 0-8.643 5.916-14.906 15.08-14.906 3.017 0 5.685.754 7.076 1.45l-1.16 3.944c-1.218-.696-3.132-1.334-5.916-1.334-6.438 0-9.917 4.756-9.917 10.613 0 6.496 4.176 10.498 9.744 10.498 2.9 0 4.814-.754 6.264-1.393l.869 3.829zM1150.872 127.778c0-3.306-.059-6.147-.232-8.758h4.466l.174 5.51h.232c1.275-3.77 4.35-6.147 7.771-6.147.58 0 .986.058 1.45.174v4.813a7.725 7.725 0 0 0-1.74-.174c-3.596 0-6.147 2.727-6.844 6.554-.116.696-.231 1.509-.231 2.378v14.964h-5.046v-19.314zM1172.1 133.984c.115 6.901 4.523 9.744 9.627 9.744 3.654 0 5.858-.639 7.772-1.45l.87 3.653c-1.798.812-4.872 1.74-9.338 1.74-8.642 0-13.804-5.684-13.804-14.151s4.987-15.138 13.166-15.138c9.163 0 11.6 8.062 11.6 13.224 0 1.044-.116 1.855-.175 2.378H1172.1zm14.962-3.654c.059-3.248-1.334-8.293-7.075-8.293-5.162 0-7.424 4.756-7.83 8.293h14.905zM1213.858 147.092l-.406-3.538h-.174c-1.565 2.204-4.582 4.177-8.584 4.177-5.684 0-8.583-4.002-8.583-8.062 0-6.785 6.031-10.497 16.877-10.439v-.58c0-2.32-.638-6.496-6.38-6.496-2.609 0-5.336.812-7.308 2.088l-1.16-3.363c2.32-1.508 5.685-2.494 9.222-2.494 8.584 0 10.672 5.857 10.672 11.483v10.498c0 2.436.116 4.813.464 6.728h-4.64zm-.754-14.325c-5.567-.116-11.89.87-11.89 6.321 0 3.307 2.204 4.872 4.813 4.872 3.654 0 5.975-2.319 6.786-4.697.174-.522.29-1.103.29-1.624v-4.872zM1225.575 141.872c1.508.986 4.176 2.03 6.728 2.03 3.712 0 5.452-1.856 5.452-4.176 0-2.437-1.45-3.771-5.22-5.162-5.046-1.798-7.424-4.582-7.424-7.946 0-4.523 3.653-8.235 9.686-8.235 2.842 0 5.336.812 6.901 1.74l-1.275 3.712c-1.103-.696-3.132-1.624-5.742-1.624-3.016 0-4.697 1.739-4.697 3.827 0 2.32 1.682 3.364 5.335 4.756 4.872 1.856 7.366 4.292 7.366 8.469 0 4.93-3.828 8.409-10.498 8.409-3.073 0-5.915-.754-7.888-1.914l1.276-3.886zM1252.081 133.984c.115 6.901 4.523 9.744 9.628 9.744 3.653 0 5.857-.639 7.771-1.45l.87 3.653c-1.798.812-4.872 1.74-9.338 1.74-8.642 0-13.804-5.684-13.804-14.151s4.987-15.138 13.166-15.138c9.163 0 11.6 8.062 11.6 13.224 0 1.044-.116 1.855-.175 2.378h-19.718zm14.963-3.654c.059-3.248-1.334-8.293-7.075-8.293-5.162 0-7.424 4.756-7.83 8.293h14.905zM1302.54 105.913v33.929c0 2.494.058 5.336.231 7.25h-4.582l-.231-4.872h-.116c-1.565 3.133-4.987 5.511-9.569 5.511-6.786 0-12.006-5.742-12.006-14.269-.059-9.337 5.742-15.079 12.586-15.079 4.292 0 7.191 2.03 8.468 4.292h.115v-16.762h5.104zm-5.104 24.533c0-.638-.058-1.508-.231-2.146-.754-3.248-3.538-5.916-7.366-5.916-5.277 0-8.409 4.64-8.409 10.846 0 5.684 2.783 10.382 8.293 10.382 3.423 0 6.555-2.262 7.482-6.09.174-.696.231-1.393.231-2.204v-4.872zM1343.719 128.765h-15.195v14.094h16.936v4.233h-21.981v-39.091h21.111v4.233h-16.065v12.354h15.195v4.177zM1354.217 119.021l4.001 6.032c1.045 1.565 1.914 3.016 2.843 4.582h.174c.928-1.683 1.855-3.132 2.784-4.641l3.943-5.974h5.51l-9.569 13.572 9.859 14.499h-5.8l-4.118-6.321c-1.102-1.624-2.029-3.19-3.016-4.872h-.116c-.928 1.682-1.914 3.189-2.958 4.872l-4.06 6.321h-5.626l9.976-14.325-9.512-13.746h5.685zM1378.693 128.185c0-3.596-.116-6.496-.232-9.164h4.582l.231 4.814h.116c2.088-3.422 5.394-5.452 9.976-5.452 6.786 0 11.89 5.742 11.89 14.268 0 10.092-6.147 15.08-12.76 15.08-3.712 0-6.959-1.624-8.642-4.408h-.116v15.254h-5.045v-30.392zm5.045 7.481c0 .754.116 1.45.232 2.088.928 3.538 4.002 5.975 7.656 5.975 5.394 0 8.525-4.408 8.525-10.846 0-5.626-2.958-10.44-8.352-10.44-3.48 0-6.729 2.494-7.714 6.322-.174.638-.349 1.392-.349 2.088v4.813zM1411.694 127.778c0-3.306-.059-6.147-.232-8.758h4.466l.174 5.51h.232c1.275-3.77 4.35-6.147 7.771-6.147.58 0 .986.058 1.45.174v4.813a7.725 7.725 0 0 0-1.74-.174c-3.596 0-6.147 2.727-6.844 6.554-.116.696-.231 1.509-.231 2.378v14.964h-5.046v-19.314zM1432.922 133.984c.115 6.901 4.523 9.744 9.627 9.744 3.654 0 5.858-.639 7.772-1.45l.87 3.653c-1.798.812-4.872 1.74-9.338 1.74-8.642 0-13.804-5.684-13.804-14.151s4.987-15.138 13.166-15.138c9.163 0 11.6 8.062 11.6 13.224 0 1.044-.116 1.855-.175 2.378h-19.718zm14.963-3.654c.059-3.248-1.334-8.293-7.075-8.293-5.162 0-7.424 4.756-7.83 8.293h14.905zM1458.441 141.872c1.508.986 4.176 2.03 6.728 2.03 3.712 0 5.452-1.856 5.452-4.176 0-2.437-1.45-3.771-5.22-5.162-5.046-1.798-7.424-4.582-7.424-7.946 0-4.523 3.653-8.235 9.686-8.235 2.842 0 5.336.812 6.901 1.74l-1.275 3.712c-1.103-.696-3.132-1.624-5.742-1.624-3.016 0-4.697 1.739-4.697 3.827 0 2.32 1.682 3.364 5.335 4.756 4.872 1.856 7.366 4.292 7.366 8.469 0 4.93-3.828 8.409-10.498 8.409-3.073 0-5.915-.754-7.888-1.914l1.276-3.886zM1481.409 141.872c1.508.986 4.176 2.03 6.728 2.03 3.712 0 5.452-1.856 5.452-4.176 0-2.437-1.45-3.771-5.22-5.162-5.046-1.798-7.424-4.582-7.424-7.946 0-4.523 3.653-8.235 9.686-8.235 2.842 0 5.336.812 6.901 1.74l-1.275 3.712c-1.103-.696-3.132-1.624-5.742-1.624-3.016 0-4.697 1.739-4.697 3.827 0 2.32 1.682 3.364 5.335 4.756 4.872 1.856 7.366 4.292 7.366 8.469 0 4.93-3.828 8.409-10.498 8.409-3.073 0-5.915-.754-7.888-1.914l1.276-3.886zM1510.757 111.133c.058 1.74-1.218 3.132-3.248 3.132-1.798 0-3.074-1.392-3.074-3.132 0-1.798 1.334-3.189 3.19-3.189 1.914-.001 3.132 1.391 3.132 3.189zm-5.684 35.959v-28.071h5.104v28.071h-5.104zM1544.048 132.824c0 10.382-7.192 14.906-13.979 14.906-7.598 0-13.455-5.568-13.455-14.442 0-9.396 6.147-14.905 13.92-14.905 8.062 0 13.514 5.857 13.514 14.441zm-22.272.29c0 6.148 3.537 10.788 8.525 10.788 4.872 0 8.525-4.582 8.525-10.904 0-4.756-2.378-10.787-8.409-10.787-6.031 0-8.641 5.567-8.641 10.903zM1550.486 126.618c0-2.899-.059-5.277-.232-7.598h4.523l.29 4.64h.116c1.393-2.668 4.64-5.277 9.28-5.277 3.886 0 9.917 2.32 9.917 11.947v16.762h-5.104V130.91c0-4.523-1.682-8.294-6.496-8.294-3.363 0-5.974 2.378-6.844 5.221-.231.638-.348 1.508-.348 2.378v16.877h-5.104v-20.474z"/><g><path fill="none" stroke="#000" stroke-width="9" stroke-miterlimit="10" d="M1590.316 130.828h81.216"/><path d="M1653.605 146.086l15.267-15.258-15.267-15.257h12.955l15.258 15.257-15.258 15.258z"/></g><g><path fill="none" stroke="#000" stroke-width="9" stroke-miterlimit="10" d="M92.967 130.828H11.75"/><path d="M29.677 115.571L14.41 130.828l15.267 15.258H16.722L1.464 130.828l15.258-15.257zM92.967 130.828H1.464"/></g><g><path d="M110.444 108.523a72.263 72.263 0 0 1 10.729-.812c7.25 0 12.412 1.682 15.834 4.872 3.479 3.19 5.51 7.714 5.51 14.036 0 6.38-1.973 11.6-5.626 15.196-3.654 3.654-9.686 5.626-17.284 5.626-3.596 0-6.611-.174-9.163-.464v-38.454zm5.046 34.567c1.275.232 3.132.29 5.104.29 10.788 0 16.646-6.032 16.646-16.587.059-9.222-5.162-15.08-15.833-15.08-2.61 0-4.582.232-5.916.522v30.855zM151.972 133.984c.115 6.902 4.523 9.744 9.628 9.744 3.653 0 5.857-.638 7.771-1.45l.87 3.654c-1.798.812-4.872 1.74-9.338 1.74-8.642 0-13.804-5.684-13.804-14.152s4.987-15.138 13.166-15.138c9.163 0 11.6 8.062 11.6 13.224 0 1.044-.116 1.856-.175 2.378h-19.718zm14.963-3.653c.059-3.248-1.334-8.293-7.075-8.293-5.162 0-7.424 4.756-7.83 8.293h14.905zM198.196 146.048c-1.334.696-4.292 1.624-8.062 1.624-8.468 0-13.978-5.742-13.978-14.326 0-8.642 5.916-14.906 15.079-14.906 3.017 0 5.685.754 7.076 1.45l-1.16 3.944c-1.218-.696-3.132-1.334-5.916-1.334-6.438 0-9.917 4.756-9.917 10.614 0 6.496 4.176 10.498 9.743 10.498 2.9 0 4.814-.754 6.264-1.392l.871 3.828zM204.171 127.779c0-3.306-.059-6.148-.232-8.758h4.466l.174 5.51h.232c1.275-3.77 4.35-6.148 7.771-6.148.58 0 .986.058 1.45.174v4.813a7.667 7.667 0 0 0-1.74-.174c-3.596 0-6.147 2.726-6.844 6.554-.116.696-.231 1.508-.231 2.378v14.964h-5.046v-19.313zM225.398 133.984c.115 6.902 4.523 9.744 9.627 9.744 3.654 0 5.858-.638 7.772-1.45l.87 3.654c-1.798.812-4.872 1.74-9.338 1.74-8.642 0-13.804-5.684-13.804-14.152s4.987-15.138 13.166-15.138c9.163 0 11.6 8.062 11.6 13.224 0 1.044-.116 1.856-.175 2.378h-19.718zm14.963-3.653c.059-3.248-1.334-8.293-7.075-8.293-5.162 0-7.424 4.756-7.83 8.293h14.905zM267.157 147.092l-.406-3.538h-.174c-1.565 2.204-4.582 4.176-8.584 4.176-5.684 0-8.583-4.002-8.583-8.062 0-6.786 6.031-10.498 16.877-10.44v-.58c0-2.32-.638-6.496-6.38-6.496-2.609 0-5.336.812-7.308 2.088l-1.16-3.364c2.32-1.508 5.685-2.494 9.222-2.494 8.584 0 10.672 5.858 10.672 11.484v10.498c0 2.436.116 4.814.464 6.728h-4.64zm-.754-14.325c-5.567-.116-11.89.87-11.89 6.322 0 3.306 2.204 4.872 4.813 4.872 3.654 0 5.975-2.32 6.786-4.698.174-.522.29-1.102.29-1.624v-4.872zM278.874 141.873c1.508.986 4.176 2.03 6.728 2.03 3.712 0 5.452-1.856 5.452-4.176 0-2.436-1.45-3.77-5.22-5.162-5.046-1.798-7.424-4.582-7.424-7.946 0-4.524 3.653-8.236 9.686-8.236 2.842 0 5.336.812 6.901 1.74l-1.275 3.712c-1.103-.696-3.132-1.624-5.742-1.624-3.016 0-4.697 1.74-4.697 3.828 0 2.32 1.682 3.364 5.335 4.756 4.872 1.856 7.366 4.292 7.366 8.468 0 4.93-3.828 8.41-10.498 8.41-3.073 0-5.915-.754-7.888-1.914l1.276-3.886zM305.38 133.984c.115 6.902 4.523 9.744 9.628 9.744 3.653 0 5.857-.638 7.771-1.45l.87 3.654c-1.798.812-4.872 1.74-9.338 1.74-8.642 0-13.804-5.684-13.804-14.152s4.987-15.138 13.166-15.138c9.163 0 11.6 8.062 11.6 13.224 0 1.044-.116 1.856-.175 2.378H305.38zm14.963-3.653c.059-3.248-1.334-8.293-7.075-8.293-5.162 0-7.424 4.756-7.83 8.293h14.905zM355.839 105.913v33.929c0 2.494.058 5.336.231 7.25h-4.582l-.231-4.872h-.116c-1.565 3.132-4.987 5.51-9.569 5.51-6.786 0-12.006-5.742-12.006-14.268-.059-9.337 5.742-15.08 12.586-15.08 4.292 0 7.191 2.03 8.468 4.292h.115v-16.762h5.104zm-5.105 24.534c0-.638-.058-1.508-.231-2.146-.754-3.248-3.538-5.916-7.366-5.916-5.277 0-8.409 4.64-8.409 10.846 0 5.684 2.783 10.382 8.293 10.382 3.423 0 6.555-2.262 7.482-6.09.174-.696.231-1.392.231-2.204v-4.872zM397.018 128.765h-15.195v14.094h16.936v4.234h-21.981v-39.091h21.111v4.234h-16.065v12.354h15.195v4.175zM407.516 119.021l4.001 6.032c1.045 1.566 1.914 3.016 2.843 4.582h.174c.928-1.682 1.855-3.132 2.784-4.64l3.943-5.974h5.51l-9.569 13.572 9.859 14.5h-5.8l-4.118-6.322c-1.102-1.624-2.029-3.19-3.016-4.872h-.116c-.928 1.682-1.914 3.19-2.958 4.872l-4.06 6.322h-5.626l9.976-14.326-9.512-13.746h5.685zM431.992 128.185c0-3.596-.116-6.496-.232-9.164h4.582l.231 4.814h.116c2.088-3.422 5.394-5.452 9.976-5.452 6.786 0 11.89 5.742 11.89 14.268 0 10.092-6.147 15.08-12.76 15.08-3.712 0-6.959-1.624-8.642-4.408h-.116v15.254h-5.045v-30.392zm5.045 7.482c0 .754.116 1.45.232 2.088.928 3.538 4.002 5.974 7.656 5.974 5.394 0 8.525-4.408 8.525-10.846 0-5.626-2.958-10.44-8.352-10.44-3.48 0-6.729 2.494-7.714 6.322-.174.638-.349 1.392-.349 2.088v4.814zM464.993 127.779c0-3.306-.059-6.148-.232-8.758h4.466l.174 5.51h.232c1.275-3.77 4.35-6.148 7.771-6.148.58 0 .986.058 1.45.174v4.813a7.667 7.667 0 0 0-1.74-.174c-3.596 0-6.147 2.726-6.844 6.554-.116.696-.231 1.508-.231 2.378v14.964h-5.046v-19.313zM486.221 133.984c.115 6.902 4.523 9.744 9.627 9.744 3.654 0 5.858-.638 7.772-1.45l.87 3.654c-1.798.812-4.872 1.74-9.338 1.74-8.642 0-13.804-5.684-13.804-14.152s4.987-15.138 13.166-15.138c9.163 0 11.6 8.062 11.6 13.224 0 1.044-.116 1.856-.175 2.378h-19.718zm14.963-3.653c.059-3.248-1.334-8.293-7.075-8.293-5.162 0-7.424 4.756-7.83 8.293h14.905zM511.74 141.873c1.508.986 4.176 2.03 6.728 2.03 3.712 0 5.452-1.856 5.452-4.176 0-2.436-1.45-3.77-5.22-5.162-5.046-1.798-7.424-4.582-7.424-7.946 0-4.524 3.653-8.236 9.686-8.236 2.842 0 5.336.812 6.901 1.74l-1.275 3.712c-1.103-.696-3.132-1.624-5.742-1.624-3.016 0-4.697 1.74-4.697 3.828 0 2.32 1.682 3.364 5.335 4.756 4.872 1.856 7.366 4.292 7.366 8.468 0 4.93-3.828 8.41-10.498 8.41-3.073 0-5.915-.754-7.888-1.914l1.276-3.886zM534.708 141.873c1.508.986 4.176 2.03 6.728 2.03 3.712 0 5.452-1.856 5.452-4.176 0-2.436-1.45-3.77-5.22-5.162-5.046-1.798-7.424-4.582-7.424-7.946 0-4.524 3.653-8.236 9.686-8.236 2.842 0 5.336.812 6.901 1.74l-1.275 3.712c-1.103-.696-3.132-1.624-5.742-1.624-3.016 0-4.697 1.74-4.697 3.828 0 2.32 1.682 3.364 5.335 4.756 4.872 1.856 7.366 4.292 7.366 8.468 0 4.93-3.828 8.41-10.498 8.41-3.073 0-5.915-.754-7.888-1.914l1.276-3.886zM564.056 111.133c.058 1.74-1.218 3.132-3.248 3.132-1.798 0-3.074-1.392-3.074-3.132 0-1.798 1.334-3.19 3.19-3.19 1.914 0 3.132 1.392 3.132 3.19zm-5.684 35.959v-28.071h5.104v28.071h-5.104zM597.347 132.825c0 10.382-7.192 14.906-13.979 14.906-7.598 0-13.455-5.568-13.455-14.442 0-9.396 6.147-14.906 13.92-14.906 8.062 0 13.514 5.858 13.514 14.442zm-22.272.29c0 6.148 3.537 10.788 8.525 10.788 4.872 0 8.525-4.582 8.525-10.904 0-4.756-2.378-10.788-8.409-10.788-6.031 0-8.641 5.568-8.641 10.904zM603.785 126.619c0-2.9-.059-5.278-.232-7.598h4.523l.29 4.64h.116c1.393-2.668 4.64-5.278 9.28-5.278 3.886 0 9.917 2.32 9.917 11.948v16.762h-5.104v-16.182c0-4.524-1.682-8.294-6.496-8.294-3.363 0-5.974 2.378-6.844 5.22-.231.638-.348 1.508-.348 2.378v16.877h-5.104v-20.473z"/></g></svg>