<svg xmlns="http://www.w3.org/2000/svg" viewBox="0 0 595.28 841.89"><path d="M286.076 437.267c-.625-.1-1.267-.32-1.933-.66l1.933.66z" fill="#FFF"/><path d="M495.578 539.915c-4.784 4.575-15.45 1.18-23.825-7.58 0 0-55.053-65.27-62.956-65.905-7.908-.628-11.886 6.965-17.236 6.79l-.388-.13-.007-.004-105.09-35.818-1.933-.66c-13.887-7.13-64.592-105.65-64.592-105.65-6.884-11.317-5.282-24.857 3.58-30.25 8.864-5.393 21.626-.597 28.512 10.717l47.086 77.365.126-.41 108.492 33.1c5.78 1.42 15.676 25.133 18.784 28.39 3.105 3.252 62.963 65.9 62.963 65.9 8.37 8.764 11.276 19.57 6.485 24.145z" fill="#FFF"/><path d="M391.562 473.22c-.144-.004-.274-.05-.39-.13l.39.13zM435.512 444.43c-11.488-9.7-12.937-26.878-3.24-38.368 9.7-11.49 26.875-12.94 38.365-3.242 6.344 5.357 9.63 12.994 9.663 20.692l11.713 4.71-27.875 33.018-6.607-10.758c-7.59 1.26-15.675-.698-22.018-6.052zM381.03 391.54l-70.135-20.412c-2.457-.716-3.868-3.284-3.15-5.738l6.11-20.993c.713-2.455 3.28-3.866 5.734-3.15l70.136 20.41-8.696 29.883zM414.732 385.275c-2.383 8.182-10.948 12.886-19.13 10.505l-9.447-2.75 8.623-29.633 9.447 2.75c8.182 2.38 12.885 10.945 10.507 19.128zM204.384 232.975l18.763 49.41-18.442 17.774-61.788-64.704" fill="#FFF"/><g><path fill="#FFF" d="M106.383 584.843h410.453"/><path fill="none" stroke="#FFF" stroke-width="13" stroke-linecap="round" stroke-miterlimit="10" d="M106.383 584.843h410.453"/><path d="M544.296 584.843c-12.92 4.794-28.953 12.975-38.89 21.64l7.827-21.64-7.827-21.635c9.937 8.665 25.968 16.845 38.89 21.635z" fill="#FFF"/></g><g><path d="M106.383 584.843V208.31"/><path fill="none" stroke="#FFF" stroke-width="13" stroke-linecap="round" stroke-miterlimit="10" d="M106.383 584.843V208.31"/><path d="M106.383 180.066c4.93 13.29 13.345 29.78 22.257 40.002l-22.257-8.05-22.253 8.05c8.912-10.222 17.326-26.712 22.253-40.002z" fill="#FFF"/></g></svg>