<?xml version="1.0" standalone="no"?>
<!DOCTYPE svg PUBLIC "-//W3C//DTD SVG 20010904//EN"
 "http://www.w3.org/TR/2001/REC-SVG-20010904/DTD/svg10.dtd">
<svg version="1.0" xmlns="http://www.w3.org/2000/svg"
 width="700.000000pt" height="700.000000pt" viewBox="0 0 700.000000 700.000000"
 preserveAspectRatio="xMidYMid meet">
<metadata>
Created by potrace 1.11, written by Peter Selinger 2001-2013
</metadata>
<g transform="translate(0.000000,700.000000) scale(0.100000,-0.100000)"
fill="#000000" stroke="none">
<path d="M1530 6783 c0 -21 56 -94 108 -142 58 -53 110 -99 212 -191 52 -47
97 -87 100 -90 3 -3 23 -20 45 -39 22 -19 74 -64 115 -100 41 -36 117 -104
170 -150 115 -102 318 -304 387 -386 110 -131 256 -351 298 -450 81 -193 85
-339 15 -590 -23 -82 -57 -199 -75 -260 -19 -60 -35 -118 -37 -127 -2 -13 37
-41 159 -112 212 -124 203 -121 205 -52 2 63 3 86 12 171 3 33 13 130 21 215
18 187 21 203 46 305 29 114 64 195 132 310 32 55 61 114 63 130 7 43 -23 84
-107 152 -115 92 -339 286 -395 340 -28 28 -90 99 -139 159 -202 250 -466 478
-755 656 -216 132 -503 268 -567 268 -7 0 -13 -8 -13 -17z"/>
<path d="M350 6370 c-12 -7 -15 -35 -14 -142 1 -73 4 -155 8 -183 61 -442 185
-749 367 -909 30 -26 203 -146 384 -266 433 -287 559 -376 755 -529 217 -171
468 -405 641 -601 139 -158 150 -170 249 -270 245 -248 564 -493 855 -654 133
-75 304 -166 309 -166 3 0 50 -22 105 -49 292 -144 647 -255 941 -297 214 -29
510 -27 710 6 206 34 255 27 376 -49 81 -51 115 -50 230 9 53 27 101 47 107
43 20 -12 109 -3 145 16 41 21 135 115 157 158 24 46 18 84 -20 132 -39 49
-45 90 -20 137 15 30 20 80 9 108 -14 37 -277 211 -358 236 -75 24 -151 0
-241 -74 -80 -67 -125 -79 -209 -55 -93 26 -135 78 -156 194 -7 39 -19 84 -26
100 -34 83 -112 155 -244 227 -58 32 -371 138 -755 256 -71 22 -177 55 -235
73 -295 90 -323 97 -400 95 -121 -4 -175 -35 -306 -177 -41 -44 -93 -69 -144
-69 -42 0 -231 70 -303 112 -320 185 -895 547 -982 617 -124 100 -226 217
-303 347 -71 122 -126 157 -387 247 -207 71 -249 91 -370 170 -387 253 -607
540 -760 987 -54 159 -80 223 -91 227 -5 1 -16 -2 -24 -7z"/>
<path d="M1739 6263 c-8 -10 -51 -51 -95 -92 -43 -40 -120 -112 -169 -160
-115 -109 -399 -378 -445 -421 l-34 -32 35 -32 c19 -17 65 -58 103 -91 38 -33
75 -66 82 -72 10 -10 44 27 169 185 87 108 168 211 182 227 135 165 308 389
308 400 0 13 -99 105 -114 105 -3 0 -13 -8 -22 -17z"/>
<path d="M2304 5676 c-49 -39 -210 -167 -359 -285 -148 -118 -276 -219 -283
-226 -11 -10 17 -25 142 -75 85 -34 159 -60 163 -58 10 4 140 144 378 408 32
36 80 88 107 115 26 28 48 55 48 60 0 6 -24 37 -53 71 l-53 61 -90 -71z"/>
<path d="M2550 4881 c-157 -104 -293 -195 -304 -203 -17 -12 -10 -20 93 -107
61 -51 115 -91 120 -89 5 1 51 42 103 89 51 47 131 119 178 160 100 89 121
121 125 193 3 52 -13 146 -24 146 -3 -1 -134 -86 -291 -189z"/>
<path d="M3015 2968 c12 -38 150 -321 206 -420 29 -51 66 -118 82 -148 297
-541 679 -1059 1112 -1509 156 -163 274 -276 410 -396 44 -38 87 -77 95 -85
25 -26 283 -234 315 -255 19 -12 49 -19 83 -19 49 -1 56 2 87 36 45 49 53 95
26 150 -15 32 -61 76 -177 173 -86 72 -168 141 -183 154 -319 292 -558 537
-768 786 -61 73 -233 292 -274 350 -20 28 -65 91 -101 140 -102 142 -242 363
-360 570 -60 105 -123 204 -142 220 -37 34 -383 268 -404 273 -10 3 -12 -2 -7
-20z"/>
<path d="M4031 2290 c-62 -93 -70 -119 -48 -156 18 -31 90 -114 99 -114 4 0
21 15 36 33 160 180 202 231 195 237 -4 4 -51 24 -103 45 -52 20 -100 39 -106
42 -7 2 -39 -37 -73 -87z"/>
<path d="M5668 2146 c-108 -15 -152 -26 -167 -40 -12 -11 -21 -22 -21 -27 0
-4 -17 -45 -39 -91 -21 -45 -134 -292 -251 -548 -117 -256 -214 -468 -216
-471 -4 -7 114 -109 124 -109 4 0 104 159 223 353 119 194 296 482 393 641 98
158 175 294 172 302 -7 18 -38 17 -218 -10z"/>
<path d="M4746 2128 c-43 -41 -297 -535 -298 -579 -1 -24 10 -42 50 -82 51
-51 52 -51 70 -32 36 39 504 677 499 681 -2 3 -26 7 -53 10 -27 3 -87 12 -134
20 -47 8 -88 14 -93 14 -4 0 -22 -15 -41 -32z"/>
</g>
</svg>
